# xmcd
#
# Track frame offsets: 
#        150
#        19648
#        39957
#        54631
#        66489
#        81748
#        94286
#        109777
#        127571
#
# Disc length: 2014 seconds
#
# Revision: 0
# Processed by: cddbd v1.5.2PL0 Copyright (c) Steve Scherf et al.
# Submitted via: ExactAudioCopy v0.95b4
#
DISCID=7307dc09
DTITLE=Foster and Lloyd - Foster and Lloyd
DYEAR=1987
DGENRE=
TTITLE0=Turn Around
TTITLE1=Crazy Over You
TTITLE2=What Do You Want From Me This Time?
TTITLE3=Token of Love
TTITLE4=Sure Thing
TTITLE5=Hard To Say No
TTITLE6=The Part I Know By Heart
TTITLE7=Texas in 1880
TTITLE8=You Can Come Cryin' To Me
EXTD=
EXTT0=
EXTT1=
EXTT2=
EXTT3=
EXTT4=
EXTT5=
EXTT6=
EXTT7=
EXTT8=
PLAYORDER=
